<svg id="svg" version="1.1" xmlns="http://www.w3.org/2000/svg" xmlns:xlink="http://www.w3.org/1999/xlink" width="400" height="400" viewBox="0, 0, 400,400"><g id="svgg"><path id="path0" d="M280.911 132.018 C 259.662 135.320,244.510 158.705,263.519 158.860 C 284.883 159.034,306.396 145.064,299.894 135.239 C 297.705 131.931,289.944 130.614,280.911 132.018 M22.389 201.434 C 15.543 201.702,14.734 201.996,14.073 204.450 C 13.185 207.746,13.781 266.762,14.736 270.185 C 18.193 282.570,27.568 291.581,40.276 294.732 C 43.342 295.493,328.024 295.940,335.741 295.196 C 348.611 293.957,357.837 287.701,363.345 276.481 C 366.944 269.151,366.798 270.765,366.949 236.667 C 367.094 204.052,367.095 204.075,365.552 202.532 L 364.501 201.481 329.195 201.494 L 293.889 201.507 291.865 204.666 C 280.013 223.167,245.385 238.226,225.328 233.602 C 210.850 230.264,200.639 218.751,199.731 204.743 L 199.520 201.481 133.339 201.481 C 96.940 201.481,58.423 201.418,47.746 201.341 C 37.069 201.264,25.658 201.306,22.389 201.434 M60.185 241.069 C 66.171 243.717,68.605 251.086,64.109 252.949 C 62.225 253.729,60.499 253.172,59.334 251.407 C 57.005 247.881,55.365 247.091,52.956 248.337 C 49.852 249.942,50.620 252.763,55.788 258.747 C 62.547 266.575,64.049 271.685,61.332 277.618 C 54.482 292.580,30.370 289.492,30.370 273.653 C 30.370 271.172,30.435 270.972,31.630 269.778 C 34.453 266.955,38.889 268.864,38.889 272.902 C 38.889 280.572,48.979 282.619,52.547 275.672 C 54.035 272.777,52.853 269.789,47.671 263.343 C 42.959 257.481,42.031 255.583,42.054 251.852 C 42.105 243.343,52.009 237.453,60.185 241.069 M180.648 241.294 C 181.839 242.680,181.709 243.981,179.815 249.630 C 177.835 255.531,177.869 255.185,179.271 255.185 C 185.392 255.185,184.415 261.444,178.231 261.852 L 175.425 262.037 172.734 269.630 C 169.778 277.970,169.611 278.868,170.811 279.986 C 173.474 282.467,177.849 279.687,181.077 273.464 C 183.227 269.320,186.201 268.110,188.056 270.625 C 190.163 273.482,183.944 283.407,178.333 286.140 C 174.185 288.161,167.769 287.578,164.727 284.903 C 164.143 284.390,163.947 284.432,162.616 285.354 C 155.511 290.278,146.732 285.741,148.196 277.901 C 148.378 276.928,149.108 274.561,149.819 272.640 C 151.339 268.531,151.409 267.620,150.265 266.870 C 148.071 265.433,147.874 265.634,145.578 271.667 C 142.923 278.639,141.979 280.478,139.823 282.876 C 135.632 287.537,127.534 288.907,123.624 285.617 C 122.552 284.715,122.491 284.706,121.538 285.327 C 117.529 287.937,112.848 288.080,109.996 285.680 L 108.899 284.757 107.868 285.491 C 103.442 288.643,96.362 287.791,93.536 283.766 C 91.614 281.028,91.854 278.718,94.924 270.424 C 97.569 263.278,97.701 261.852,95.714 261.852 C 92.964 261.852,91.765 263.782,88.094 274.127 C 86.260 279.292,84.494 284.080,84.169 284.766 C 82.889 287.466,79.336 288.282,77.379 286.325 C 75.849 284.795,75.900 284.529,79.815 273.704 C 83.705 262.948,83.745 262.764,82.371 262.138 C 79.562 260.858,77.922 263.247,74.263 273.949 C 70.757 284.203,69.994 285.922,68.569 286.763 C 66.172 288.179,62.967 287.155,62.469 284.815 C 62.262 283.841,70.785 258.650,71.852 257.083 C 72.780 255.719,75.239 255.080,77.096 255.720 C 78.443 256.184,78.910 256.181,80.811 255.694 C 83.448 255.018,86.255 255.460,87.959 256.819 L 89.059 257.696 90.738 256.818 C 95.124 254.525,100.623 255.049,103.384 258.022 C 106.269 261.130,106.220 262.616,102.941 271.702 C 100.037 279.746,99.939 280.496,101.769 280.672 C 104.940 280.978,106.257 279.096,109.626 269.444 C 112.845 260.221,113.238 259.374,115.044 257.789 C 117.752 255.411,122.310 254.692,125.786 256.093 C 127.289 256.700,127.333 256.695,128.708 255.762 C 131.736 253.707,135.556 255.303,135.556 258.624 C 135.556 259.109,134.053 263.826,132.216 269.105 C 128.624 279.427,128.434 280.482,130.132 280.677 C 133.714 281.086,135.858 278.252,139.650 268.093 L 141.897 262.074 141.272 260.686 C 139.342 256.408,142.629 251.150,146.677 252.039 C 148.971 252.543,151.161 255.499,150.585 257.313 C 150.416 257.847,150.815 258.129,152.688 258.803 C 155.492 259.811,158.388 261.950,159.315 263.698 C 160.482 265.897,160.281 267.002,157.064 276.056 C 155.776 279.683,155.830 280.741,157.305 280.741 C 159.697 280.741,161.435 277.881,164.627 268.697 L 167.006 261.852 165.561 261.852 C 163.815 261.852,162.963 260.870,162.963 258.857 C 162.963 256.548,164.933 255.189,168.287 255.183 C 169.429 255.181,169.463 255.126,170.880 251.017 C 173.425 243.637,174.430 241.482,175.697 240.686 C 177.271 239.698,179.511 239.973,180.648 241.294 M218.678 240.521 C 219.363 240.807,220.088 241.333,220.287 241.690 C 220.628 242.300,220.712 242.294,221.714 241.596 C 225.121 239.221,229.547 239.510,232.239 242.283 L 233.689 243.778 235.269 242.617 C 241.016 238.390,249.220 239.564,251.846 244.988 C 253.517 248.440,253.249 249.745,247.819 264.630 C 242.225 279.962,242.146 280.370,244.753 280.370 C 247.907 280.370,250.170 277.094,253.334 267.949 C 254.388 264.901,255.578 261.873,255.979 261.220 C 261.948 251.485,277.533 254.788,276.564 265.582 C 275.926 272.683,268.268 277.449,261.597 274.898 C 259.414 274.063,259.259 274.179,259.259 276.659 C 259.259 281.457,267.896 282.208,273.757 277.920 C 275.692 276.504,275.719 276.449,278.887 267.373 C 281.450 260.031,281.780 259.354,283.565 257.786 C 286.270 255.411,290.830 254.692,294.304 256.093 C 295.807 256.700,295.852 256.695,297.226 255.762 C 300.271 253.696,304.074 255.305,304.074 258.660 C 304.074 259.125,302.571 263.826,300.734 269.105 C 298.897 274.384,297.439 279.120,297.493 279.630 C 297.635 280.948,299.726 281.104,301.459 279.925 C 304.155 278.090,304.621 277.074,310.698 259.777 C 317.799 239.564,317.337 240.508,320.331 240.106 C 322.126 239.866,324.444 241.755,324.444 243.458 C 324.444 243.974,321.773 252.116,318.508 261.550 C 312.024 280.289,311.962 280.571,314.328 280.525 C 317.104 280.471,318.531 278.930,319.615 274.815 C 319.961 273.502,320.626 272.597,322.742 270.556 C 325.112 268.269,325.789 267.275,328.477 262.145 C 331.690 256.010,332.824 254.643,335.047 254.226 C 339.751 253.344,342.714 258.471,339.410 261.776 L 338.078 263.107 340.767 268.385 C 343.070 272.905,343.489 274.025,343.688 276.184 L 343.921 278.704 345.837 276.773 C 346.891 275.712,348.244 273.870,348.844 272.681 C 351.951 266.526,357.743 269.677,354.791 275.917 C 349.777 286.516,335.299 291.196,324.288 285.778 L 321.724 284.516 320.372 285.369 C 316.321 287.927,311.097 288.095,307.681 285.777 L 306.385 284.897 304.128 286.016 C 300.141 287.992,294.752 287.813,292.143 285.617 C 291.070 284.715,291.009 284.706,290.056 285.327 C 285.788 288.106,280.709 288.052,277.976 285.199 L 276.937 284.114 274.768 285.209 C 268.154 288.547,258.494 287.977,254.187 283.994 L 253.373 283.242 251.809 284.581 C 245.971 289.578,236.489 287.748,234.603 281.260 C 233.757 278.348,234.039 277.198,238.890 263.802 C 243.353 251.480,243.311 251.654,242.163 250.194 C 241.453 249.291,241.178 249.197,239.732 249.360 C 236.229 249.755,235.654 250.829,229.074 269.259 C 226.056 277.713,223.322 284.991,222.997 285.432 C 220.358 289.020,214.163 287.306,214.964 283.209 C 215.090 282.564,217.467 275.787,220.247 268.148 C 226.666 250.508,226.854 248.933,222.488 249.353 C 218.973 249.691,218.948 249.739,211.850 269.524 C 205.766 286.482,205.544 286.910,202.658 287.298 C 199.880 287.670,197.778 286.052,197.778 283.542 C 197.778 282.485,211.627 243.257,212.474 241.915 C 213.557 240.200,216.387 239.564,218.678 240.521 M265.556 262.113 C 263.949 262.701,261.730 266.681,262.402 267.769 C 262.909 268.589,266.640 268.209,267.609 267.239 C 269.699 265.150,268.108 261.180,265.556 262.113 M120.950 263.177 C 118.881 265.246,114.859 279.155,116.000 280.296 C 118.549 282.846,122.499 276.315,124.619 266.046 C 125.157 263.440,122.648 261.479,120.950 263.177 M289.468 263.177 C 287.399 265.246,283.378 279.155,284.519 280.296 C 287.068 282.846,291.018 276.315,293.137 266.046 C 293.675 263.440,291.167 261.479,289.468 263.177 M332.246 270.185 C 332.246 270.593,332.490 271.249,332.790 271.645 C 334.753 274.240,332.001 279.254,328.611 279.258 C 327.112 279.260,327.066 279.804,328.500 280.546 C 334.424 283.609,337.539 276.155,332.830 270.185 L 332.246 269.444 332.246 270.185 " stroke="none" fill="#fbfb8b" fill-rule="evenodd"></path><path id="path1" d="M250.487 76.278 C 248.693 77.371,248.602 77.687,245.876 92.197 C 244.477 99.646,242.249 111.326,240.925 118.152 C 239.601 124.978,238.519 130.706,238.519 130.881 C 238.519 131.056,240.144 129.647,242.130 127.749 C 245.631 124.405,245.754 124.232,246.173 122.057 C 248.701 108.923,251.393 94.360,252.749 86.481 L 254.406 76.852 253.644 76.204 C 252.664 75.371,251.946 75.388,250.487 76.278 M238.752 78.241 C 238.282 78.989,224.799 128.887,224.810 129.838 C 224.813 130.055,225.329 130.721,225.957 131.320 C 227.430 132.722,229.323 135.303,230.402 137.379 C 230.870 138.281,231.298 138.864,231.353 138.676 C 231.551 137.998,238.114 103.992,240.415 91.722 L 242.765 79.185 241.732 78.296 C 240.439 77.184,239.429 77.165,238.752 78.241 M261.054 78.744 C 260.169 79.479,259.412 80.109,259.372 80.144 C 259.332 80.179,258.783 83.286,258.153 87.048 C 256.803 95.112,255.271 103.571,253.499 112.745 C 252.795 116.393,252.288 119.448,252.373 119.533 C 252.457 119.618,253.847 118.926,255.461 117.995 L 258.395 116.303 260.320 107.873 C 261.379 103.238,263.302 95.278,264.593 90.185 C 267.176 80.002,267.178 79.928,264.957 78.181 C 263.591 77.106,262.907 77.205,261.054 78.744 M274.954 81.328 C 272.322 82.627,271.925 83.440,269.793 91.907 C 266.906 103.371,264.705 112.977,264.917 113.188 C 265.018 113.289,266.839 112.831,268.964 112.170 L 272.827 110.968 274.989 103.354 C 277.227 95.476,279.999 84.635,280.000 83.759 C 280.001 81.875,276.887 80.375,274.954 81.328 M99.259 112.963 C 97.630 114.592,98.003 115.632,105.825 131.282 L 113.131 145.900 114.281 145.222 C 114.913 144.848,116.042 144.341,116.789 144.095 C 118.506 143.528,119.245 145.432,110.855 128.795 C 102.101 111.435,101.545 110.677,99.259 112.963 M354.785 112.573 C 349.455 113.550,342.465 116.304,337.593 119.347 C 334.702 121.152,329.216 125.256,329.354 125.511 C 335.136 136.215,334.268 147.937,326.779 160.283 C 325.882 161.762,325.233 163.112,325.338 163.281 C 325.522 163.579,326.667 173.742,326.667 175.076 C 326.667 175.738,331.275 167.826,332.610 164.872 C 337.419 154.233,339.108 140.010,337.000 127.908 C 336.399 124.455,337.736 122.778,340.530 123.479 C 342.819 124.053,344.244 140.591,342.720 148.884 C 342.507 150.042,342.803 149.774,345.568 146.303 C 352.567 137.518,362.449 129.419,365.297 130.134 C 368.472 130.931,367.848 133.845,363.965 136.354 C 358.427 139.933,351.399 146.994,346.694 153.706 L 345.055 156.045 346.324 155.786 C 351.703 154.688,370.024 152.222,372.804 152.222 C 374.948 152.222,375.679 153.323,375.071 155.637 C 374.676 157.142,373.987 157.348,366.022 158.349 C 343.031 161.237,340.878 162.001,336.893 168.687 C 334.770 172.249,329.991 181.111,330.194 181.111 C 330.260 181.111,331.535 180.623,333.028 180.026 C 339.750 177.336,346.174 176.261,356.941 176.023 C 367.350 175.793,369.352 176.421,368.343 179.600 C 367.772 181.399,367.413 181.481,360.186 181.481 C 346.013 181.481,334.031 184.355,327.545 189.310 C 325.871 190.589,323.333 194.725,323.333 196.174 C 323.333 196.307,328.960 196.311,335.837 196.183 L 348.342 195.950 352.226 194.813 C 369.404 189.784,384.290 175.551,388.678 159.959 C 395.976 134.030,377.631 108.383,354.785 112.573 M88.559 117.554 C 87.611 118.079,86.694 119.463,86.692 120.370 C 86.689 122.080,104.787 157.159,105.168 156.181 C 105.381 155.633,105.704 154.810,105.885 154.352 C 106.066 153.894,106.811 152.634,107.541 151.552 L 108.869 149.585 101.122 134.095 C 92.265 116.386,91.792 115.762,88.559 117.554 M76.543 123.635 C 75.066 125.267,75.291 126.119,79.058 133.158 C 82.089 138.824,92.285 159.002,93.559 161.857 C 93.785 162.363,94.970 164.778,96.193 167.222 C 100.027 174.888,102.793 183.035,104.460 191.574 L 105.309 195.926 111.028 195.926 C 115.450 195.926,116.706 195.821,116.568 195.463 C 112.539 184.998,82.857 124.947,81.149 123.805 C 79.598 122.768,77.402 122.687,76.543 123.635 M199.259 128.013 C 194.471 128.625,188.040 130.930,183.613 133.619 C 179.918 135.864,179.337 136.383,179.091 137.659 C 178.311 141.721,173.220 148.234,168.986 150.586 C 166.035 152.225,163.999 157.383,159.991 173.373 C 157.501 183.305,155.824 188.667,153.915 192.799 C 153.187 194.372,152.593 195.720,152.593 195.793 C 152.593 195.866,156.009 195.926,160.185 195.926 L 167.778 195.926 167.778 192.740 C 167.778 188.794,166.612 185.059,163.349 178.550 C 160.577 173.019,160.742 171.111,163.993 171.111 C 166.328 171.111,171.163 180.556,172.735 188.190 L 173.223 190.556 175.338 186.350 C 176.501 184.037,177.401 182.110,177.337 182.068 C 177.274 182.026,176.349 181.445,175.282 180.775 C 166.471 175.247,164.678 164.533,171.110 155.835 C 173.643 152.409,176.301 150.493,182.071 147.936 C 182.845 147.593,182.845 147.586,181.632 143.392 C 180.100 138.094,180.990 135.794,184.114 136.982 C 185.631 137.559,187.778 142.844,187.778 146.003 C 187.778 147.032,187.789 147.037,190.278 147.043 C 193.175 147.049,196.805 147.826,198.879 148.884 L 200.326 149.622 205.083 144.904 C 215.572 134.499,218.442 132.905,219.983 136.625 C 220.578 138.061,220.428 138.279,216.492 141.715 C 214.664 143.310,211.340 146.395,209.105 148.571 L 205.040 152.528 206.396 154.028 C 208.280 156.113,209.479 158.104,210.224 160.382 L 210.860 162.326 214.411 162.091 C 216.365 161.962,219.307 161.855,220.950 161.854 L 223.938 161.852 224.377 158.110 C 224.645 155.824,225.265 153.123,225.972 151.166 C 230.577 138.408,216.098 125.859,199.259 128.013 M66.434 131.688 C 66.092 132.209,65.745 133.417,65.661 134.373 L 65.508 136.111 68.773 137.816 C 70.568 138.754,73.178 140.337,74.573 141.334 C 75.967 142.332,77.459 143.398,77.888 143.704 C 78.425 144.086,77.753 142.495,75.726 138.587 C 71.910 131.227,68.429 128.643,66.434 131.688 M40.504 137.213 C 29.897 139.139,20.908 146.516,15.730 157.547 C 9.544 170.723,12.390 181.338,25.299 193.241 L 28.211 195.926 50.587 195.926 C 62.894 195.926,72.962 195.801,72.961 195.648 C 72.945 193.287,59.482 188.459,45.295 185.725 C 37.733 184.269,37.593 184.205,37.593 182.247 C 37.593 178.674,39.647 178.599,52.459 181.700 C 55.339 182.397,59.814 183.644,62.403 184.472 C 67.875 186.221,67.751 186.241,66.152 183.868 C 60.669 175.734,49.916 169.730,31.296 164.407 C 24.771 162.542,23.210 160.896,25.725 158.533 C 27.326 157.030,43.589 161.729,52.619 166.304 C 54.483 167.248,54.627 167.514,50.910 163.148 C 49.697 161.722,46.412 158.189,43.611 155.297 C 38.076 149.582,37.727 148.906,39.428 147.205 C 41.209 145.424,41.964 145.809,47.265 151.204 C 52.037 156.060,56.675 161.320,60.196 165.867 C 62.278 168.557,62.417 168.464,61.864 164.747 C 61.643 163.256,61.358 158.762,61.231 154.760 L 61.002 147.483 61.965 146.519 C 64.991 143.494,66.665 145.770,66.673 152.920 C 66.689 166.402,68.954 177.618,73.095 184.722 C 75.448 188.759,76.289 189.878,76.299 188.981 C 76.315 187.567,80.843 170.131,81.336 169.586 C 82.224 168.604,83.921 168.702,85.017 169.798 C 86.214 170.996,86.319 170.225,83.148 183.555 C 81.620 189.978,80.370 195.388,80.370 195.579 C 80.370 195.786,84.280 195.926,90.042 195.926 L 99.714 195.926 99.455 194.167 C 94.421 159.944,66.088 132.570,40.504 137.213 M212.296 167.741 C 210.708 167.962,210.700 167.972,209.823 170.487 C 206.856 179.004,198.935 183.889,188.093 183.889 L 182.668 183.889 180.966 187.315 C 180.030 189.199,179.354 190.741,179.464 190.741 C 179.574 190.741,180.948 190.327,182.517 189.821 C 187.616 188.179,199.804 186.046,201.779 186.451 C 202.720 186.644,202.853 186.490,204.071 183.791 C 205.861 179.824,209.758 174.100,213.145 170.463 C 216.286 167.090,216.314 167.180,212.296 167.741 M222.778 169.137 C 210.096 178.309,202.036 197.785,205.995 209.691 C 207.786 215.079,215.759 225.583,217.018 224.215 C 217.183 224.036,218.021 222.228,218.880 220.198 C 222.558 211.506,228.367 201.891,233.899 195.343 L 235.173 193.835 231.456 194.670 C 218.450 197.594,210.521 198.077,209.660 195.999 C 208.585 193.403,209.984 192.319,215.039 191.829 C 223.297 191.028,230.111 189.653,238.243 187.146 L 242.596 185.804 239.909 184.350 C 238.431 183.551,236.959 182.662,236.638 182.374 C 236.316 182.087,235.803 181.852,235.498 181.852 C 235.193 181.852,233.123 181.344,230.898 180.722 C 220.834 177.913,220.741 177.867,220.741 175.714 C 220.741 172.998,222.426 172.475,226.751 173.848 L 228.502 174.404 227.576 172.936 C 227.066 172.129,226.342 170.687,225.967 169.732 C 225.105 167.538,225.012 167.521,222.778 169.137 M318.344 170.242 C 314.749 173.548,308.213 177.340,301.154 180.213 L 297.679 181.628 297.917 185.018 C 298.601 194.750,300.830 196.670,311.047 196.327 L 317.465 196.111 319.144 192.037 L 320.823 187.963 321.018 181.472 C 321.209 175.089,320.910 168.504,320.430 168.533 C 320.295 168.541,319.356 169.310,318.344 170.242 M117.037 183.491 C 117.037 183.578,118.359 186.411,119.976 189.787 L 122.915 195.926 126.438 195.926 L 129.961 195.926 129.589 194.907 C 129.383 194.347,128.428 192.143,127.465 190.009 L 125.715 186.130 122.950 185.347 C 121.429 184.916,119.540 184.287,118.751 183.949 C 117.223 183.293,117.037 183.243,117.037 183.491 M285.926 185.591 C 278.848 187.485,272.566 188.480,265.614 188.807 L 259.932 189.074 263.022 191.684 C 264.721 193.120,267.611 195.440,269.444 196.840 C 273.389 199.854,273.704 200.199,273.704 201.525 C 273.704 202.716,272.200 204.074,270.881 204.074 C 268.843 204.074,252.787 190.608,252.053 188.283 C 252.044 188.255,251.342 188.118,250.493 187.978 C 248.968 187.726,248.915 187.755,246.141 190.390 L 243.333 193.057 243.333 195.191 C 243.333 200.026,244.967 205.743,248.932 214.786 C 251.753 221.223,251.688 222.963,248.623 222.963 C 246.824 222.963,246.087 221.991,243.851 216.667 C 240.754 209.291,239.482 205.401,238.294 199.679 C 237.764 197.125,227.299 213.749,223.531 223.130 C 221.926 227.127,221.924 227.120,224.871 227.901 C 235.383 230.689,247.193 228.724,261.481 221.809 C 281.766 211.992,291.012 201.450,292.383 186.574 C 292.660 183.564,293.197 183.645,285.926 185.591 M135.000 185.204 C 133.981 185.584,132.856 185.902,132.500 185.911 C 131.609 185.932,131.602 185.907,133.873 191.111 L 135.893 195.741 139.228 195.847 L 142.564 195.953 142.180 194.921 C 141.187 192.248,137.551 184.679,137.222 184.601 C 137.019 184.552,136.019 184.824,135.000 185.204 M193.899 192.806 C 188.955 193.664,184.587 194.708,182.593 195.508 C 181.934 195.772,184.309 195.886,190.811 195.902 C 195.841 195.915,200.033 195.801,200.127 195.648 C 200.221 195.495,200.417 194.579,200.562 193.611 C 200.880 191.483,201.259 191.529,193.899 192.806 M24.722 201.379 C 25.384 201.461,26.468 201.461,27.130 201.379 C 27.792 201.297,27.250 201.230,25.926 201.230 C 24.602 201.230,24.060 201.297,24.722 201.379 M55.084 201.378 C 55.742 201.460,56.908 201.462,57.677 201.381 C 58.445 201.301,57.907 201.234,56.481 201.233 C 55.056 201.231,54.427 201.297,55.084 201.378 M13.467 214.815 C 13.467 216.750,13.529 217.542,13.606 216.574 C 13.682 215.606,13.682 214.023,13.606 213.056 C 13.529 212.088,13.467 212.880,13.467 214.815 M177.778 255.268 C 177.778 255.426,178.444 255.556,179.259 255.556 C 180.074 255.556,180.741 255.490,180.741 255.409 C 180.741 255.329,180.074 255.199,179.259 255.122 C 178.444 255.044,177.778 255.110,177.778 255.268 M166.944 255.447 C 167.403 255.535,168.153 255.535,168.611 255.447 C 169.069 255.358,168.694 255.286,167.778 255.286 C 166.861 255.286,166.486 255.358,166.944 255.447 M234.160 278.889 C 234.160 279.602,234.236 279.894,234.329 279.537 C 234.423 279.181,234.423 278.597,234.329 278.241 C 234.236 277.884,234.160 278.176,234.160 278.889 " stroke="none" fill="#83ca23" fill-rule="evenodd"></path><path id="path2" d="M285.648 114.329 C 286.005 114.423,286.588 114.423,286.944 114.329 C 287.301 114.236,287.009 114.160,286.296 114.160 C 285.583 114.160,285.292 114.236,285.648 114.329 M159.074 120.729 C 150.236 122.118,145.352 127.276,145.385 135.185 C 145.426 145.093,152.963 150.514,162.487 147.485 C 179.971 141.923,176.910 117.926,159.074 120.729 M285.833 126.194 C 286.495 126.276,287.579 126.276,288.241 126.194 C 288.903 126.112,288.361 126.044,287.037 126.044 C 285.713 126.044,285.171 126.112,285.833 126.194 M306.402 139.074 C 306.405 140.093,306.477 140.465,306.562 139.902 C 306.647 139.339,306.645 138.506,306.557 138.050 C 306.469 137.595,306.399 138.056,306.402 139.074 M119.661 148.962 C 109.090 151.320,105.963 166.432,114.348 174.643 C 121.631 181.775,131.859 182.645,137.862 176.642 C 150.216 164.288,137.521 144.980,119.661 148.962 M185.314 152.748 C 174.308 155.418,169.101 166.756,175.609 173.877 C 183.903 182.952,202.079 178.924,205.043 167.355 C 207.293 158.569,195.948 150.169,185.314 152.748 M229.736 161.296 C 229.738 162.315,229.810 162.688,229.895 162.125 C 229.981 161.562,229.978 160.728,229.890 160.273 C 229.802 159.817,229.733 160.278,229.736 161.296 M316.458 164.537 L 315.370 165.741 316.574 164.653 C 317.236 164.055,317.778 163.513,317.778 163.449 C 317.778 163.163,317.472 163.415,316.458 164.537 M262.870 164.712 C 263.532 164.795,264.616 164.795,265.278 164.712 C 265.940 164.630,265.398 164.563,264.074 164.563 C 262.750 164.563,262.208 164.630,262.870 164.712 M39.238 318.982 C 37.571 320.102,37.351 321.684,38.651 323.197 L 39.565 324.259 67.151 324.444 C 99.427 324.661,96.296 324.164,96.296 329.074 C 96.296 334.088,99.106 333.636,67.047 333.775 C 41.152 333.886,40.551 333.905,39.459 334.641 C 38.185 335.500,37.569 336.898,37.896 338.189 C 38.396 340.158,37.625 340.110,67.159 340.028 L 94.531 339.952 95.414 340.782 C 96.213 341.533,96.296 341.916,96.296 344.852 C 96.296 350.129,99.319 349.630,67.370 349.630 L 40.396 349.630 39.087 350.779 C 37.408 352.253,37.276 353.996,38.754 355.158 C 39.721 355.919,39.969 355.926,67.272 355.926 C 99.542 355.926,96.296 355.408,96.296 360.556 C 96.296 365.444,97.892 365.018,78.487 365.309 C 69.440 365.444,57.091 365.555,51.047 365.555 L 40.057 365.556 38.917 366.514 C 37.062 368.076,37.485 371.048,39.741 372.297 C 41.072 373.034,115.332 372.734,118.333 371.980 C 125.035 370.295,130.539 365.726,133.792 359.148 C 134.519 357.679,135.480 356.144,135.929 355.738 C 136.739 355.005,137.371 355.000,225.317 355.000 L 313.889 355.000 315.501 354.077 C 319.443 351.820,320.338 341.634,316.913 338.002 C 314.856 335.821,319.718 335.930,224.594 335.928 C 138.374 335.926,136.397 335.910,135.773 335.221 C 135.422 334.833,134.514 333.279,133.754 331.767 C 130.634 325.556,126.225 321.495,120.032 319.128 C 117.974 318.340,117.765 318.336,79.238 318.231 L 40.514 318.125 39.238 318.982 " stroke="none" fill="#eb7cc2" fill-rule="evenodd"></path><path id="path3" d="M188.908 1.269 C 187.490 2.054,187.461 2.359,187.433 16.591 L 187.407 30.034 188.316 30.943 C 189.420 32.046,191.056 32.130,192.274 31.144 L 193.148 30.436 193.254 16.994 C 193.367 2.696,193.287 1.917,191.624 1.159 C 190.462 0.629,190.032 0.647,188.908 1.269 M240.122 7.944 C 239.046 8.714,238.731 9.759,233.499 29.930 C 231.989 35.751,232.042 36.705,233.908 37.415 C 237.106 38.631,237.259 38.341,241.097 23.789 C 242.938 16.808,244.444 10.701,244.444 10.219 C 244.444 8.200,241.748 6.781,240.122 7.944 M136.835 8.687 C 136.335 9.187,135.926 9.808,135.926 10.066 C 135.926 11.120,142.695 36.174,143.188 36.944 C 144.375 38.801,148.149 37.658,148.148 35.442 C 148.147 33.534,141.632 9.299,140.904 8.494 C 139.966 7.458,137.970 7.552,136.835 8.687 M289.074 28.490 C 288.082 28.907,287.666 29.425,283.991 34.815 C 282.255 37.361,279.058 42.018,276.888 45.163 C 272.308 51.800,272.113 52.282,273.459 53.628 C 276.025 56.193,276.624 55.708,283.798 45.266 C 286.496 41.339,289.662 36.770,290.833 35.113 C 293.999 30.635,292.993 26.844,289.074 28.490 M88.383 29.286 C 86.642 30.656,86.971 31.381,93.741 41.111 C 97.214 46.102,100.645 51.065,101.366 52.139 C 103.285 54.998,104.881 55.559,106.802 54.047 C 108.591 52.640,108.299 52.029,100.364 40.545 C 91.393 27.559,91.022 27.211,88.383 29.286 M249.998 70.346 C 248.451 70.817,246.900 71.730,245.985 72.710 L 245.118 73.638 243.207 72.749 C 240.216 71.356,237.624 71.730,235.221 73.901 C 233.264 75.669,233.366 75.346,226.294 102.037 C 222.785 115.278,219.853 126.178,219.777 126.261 C 219.701 126.343,218.512 125.891,217.134 125.257 C 207.052 120.612,193.327 121.686,182.171 127.992 C 179.637 129.424,179.585 129.409,178.910 127.037 C 176.279 117.787,166.018 113.009,154.956 115.883 C 133.394 121.484,135.229 153.704,157.110 153.704 C 159.791 153.704,160.054 153.767,159.816 154.352 C 157.286 160.576,156.066 164.598,153.372 175.589 C 151.449 183.432,149.819 188.562,148.321 191.481 L 147.465 193.148 146.913 191.848 C 146.609 191.133,145.370 188.359,144.159 185.683 L 141.958 180.818 143.405 179.020 C 154.983 164.639,144.459 143.155,125.741 142.960 L 124.259 142.945 115.926 126.425 C 108.327 111.360,107.451 109.796,105.991 108.676 C 101.875 105.517,96.883 106.155,94.279 110.172 L 93.322 111.647 90.272 111.657 C 86.086 111.670,82.725 113.783,81.785 116.991 C 81.674 117.368,80.808 117.513,78.471 117.547 C 73.924 117.613,70.370 120.589,70.370 124.332 C 70.370 125.113,70.207 125.186,68.426 125.193 C 64.066 125.212,60.370 128.773,60.370 132.957 C 60.370 133.645,60.226 133.748,59.537 133.549 C 40.678 128.093,25.553 133.004,14.821 148.068 C 3.630 163.776,4.585 180.099,17.481 193.561 L 19.650 195.825 17.092 196.008 C 12.281 196.352,9.719 198.690,8.681 203.683 C 7.808 207.884,8.100 264.219,9.019 268.889 C 12.316 285.639,24.171 297.365,40.926 300.449 C 45.685 301.325,336.658 301.132,340.665 300.250 C 359.340 296.141,370.336 283.408,372.229 263.700 C 372.962 256.071,372.548 204.732,371.734 202.310 C 370.723 199.299,367.542 196.296,365.363 196.296 C 364.393 196.296,365.049 195.698,367.501 194.348 C 389.828 182.050,400.841 156.664,393.638 134.101 C 384.296 104.838,356.024 98.154,328.668 118.742 L 325.894 120.830 324.151 119.374 C 313.641 110.594,293.914 106.178,279.770 109.439 C 279.005 109.615,279.018 109.504,280.252 105.273 C 282.521 97.493,285.556 85.234,285.556 83.845 C 285.556 78.055,278.040 73.486,272.894 76.147 C 271.423 76.908,271.016 76.797,270.104 75.388 C 268.212 72.467,263.754 71.140,260.569 72.548 L 258.794 73.334 257.386 72.062 C 255.376 70.246,252.513 69.581,249.998 70.346 M51.151 71.254 C 50.528 71.917,50.350 72.489,50.438 73.544 C 50.573 75.154,49.581 74.547,62.037 80.651 C 76.429 87.705,76.384 87.690,78.158 85.917 C 80.131 83.943,78.915 82.381,73.333 79.719 C 71.194 78.698,66.000 76.177,61.790 74.117 C 53.636 70.126,52.498 69.819,51.151 71.254 M328.909 71.010 C 327.984 71.375,307.287 81.425,305.926 82.171 C 303.436 83.534,304.333 87.407,307.138 87.407 C 308.376 87.407,330.826 76.677,332.130 75.462 C 334.308 73.433,331.747 69.892,328.909 71.010 M253.644 76.204 L 254.406 76.852 252.749 86.481 C 251.393 94.360,248.701 108.923,246.173 122.057 C 245.754 124.232,245.631 124.405,242.130 127.749 C 240.144 129.647,238.519 131.056,238.519 130.881 C 238.519 130.706,239.601 124.978,240.925 118.152 C 242.249 111.326,244.477 99.646,245.876 92.197 C 248.602 77.687,248.693 77.371,250.487 76.278 C 251.946 75.388,252.664 75.371,253.644 76.204 M241.732 78.296 L 242.765 79.185 240.415 91.722 C 238.114 103.992,231.551 137.998,231.353 138.676 C 231.298 138.864,230.870 138.281,230.402 137.379 C 229.323 135.303,227.430 132.722,225.957 131.320 C 224.490 129.922,223.857 133.002,231.517 104.259 C 239.274 75.150,238.971 75.921,241.732 78.296 M264.957 78.181 C 267.178 79.928,267.176 80.002,264.593 90.185 C 263.302 95.278,261.379 103.238,260.320 107.873 L 258.395 116.303 255.461 117.995 C 253.847 118.926,252.457 119.618,252.373 119.533 C 252.288 119.448,252.795 116.393,253.499 112.745 C 255.271 103.571,256.803 95.112,258.153 87.048 C 258.783 83.286,259.332 80.179,259.372 80.144 C 262.780 77.171,263.398 76.954,264.957 78.181 M278.741 82.000 C 279.433 82.693,280.000 83.484,280.000 83.759 C 279.999 84.635,277.227 95.476,274.989 103.354 L 272.827 110.968 268.964 112.170 C 266.839 112.831,265.018 113.289,264.917 113.188 C 264.705 112.977,266.906 103.371,269.793 91.907 C 271.925 83.440,272.322 82.627,274.954 81.328 C 276.665 80.484,277.346 80.605,278.741 82.000 M102.674 113.278 C 103.424 114.168,118.148 142.881,118.148 143.452 C 118.148 143.559,117.537 143.848,116.789 144.095 C 116.042 144.341,114.913 144.848,114.281 145.222 L 113.131 145.900 105.825 131.282 C 99.987 119.602,98.519 116.367,98.519 115.184 C 98.519 112.383,100.974 111.257,102.674 113.278 M366.852 113.123 C 378.670 116.252,387.939 128.131,389.973 142.753 C 393.054 164.901,376.523 187.701,352.226 194.813 L 348.342 195.950 335.837 196.183 C 328.960 196.311,323.333 196.307,323.333 196.174 C 323.333 194.725,325.871 190.589,327.545 189.310 C 334.031 184.355,346.013 181.481,360.186 181.481 C 367.413 181.481,367.772 181.399,368.343 179.600 C 369.352 176.421,367.350 175.793,356.941 176.023 C 346.174 176.261,339.750 177.336,333.028 180.026 C 331.535 180.623,330.260 181.111,330.194 181.111 C 329.991 181.111,334.770 172.249,336.893 168.687 C 340.878 162.001,343.031 161.237,366.022 158.349 C 373.987 157.348,374.676 157.142,375.071 155.637 C 375.679 153.323,374.948 152.222,372.804 152.222 C 370.024 152.222,351.703 154.688,346.324 155.786 L 345.055 156.045 346.694 153.706 C 351.399 146.994,358.427 139.933,363.965 136.354 C 367.848 133.845,368.472 130.931,365.297 130.134 C 362.449 129.419,352.567 137.518,345.568 146.303 C 342.803 149.774,342.507 150.042,342.720 148.884 C 344.244 140.591,342.819 124.053,340.530 123.479 C 337.736 122.778,336.399 124.455,337.000 127.908 C 339.108 140.010,337.419 154.233,332.610 164.872 C 331.275 167.826,326.667 175.738,326.667 175.076 C 326.667 173.742,325.522 163.579,325.338 163.281 C 325.233 163.112,325.882 161.762,326.779 160.283 C 334.268 147.937,335.136 136.215,329.354 125.511 C 329.285 125.385,330.695 124.207,332.485 122.892 C 344.756 113.887,356.804 110.462,366.852 113.123 M302.109 115.142 C 325.392 120.284,333.571 135.051,323.877 154.444 C 316.869 168.465,298.880 178.460,272.778 182.836 C 248.063 186.979,227.477 175.348,229.961 158.645 C 234.064 131.063,271.631 108.411,302.109 115.142 M92.378 117.821 C 93.050 118.349,95.903 123.659,101.122 134.095 L 108.869 149.585 107.541 151.552 C 106.811 152.634,106.066 153.894,105.885 154.352 C 105.704 154.810,105.381 155.633,105.168 156.181 C 104.787 157.159,86.689 122.080,86.692 120.370 C 86.697 117.759,90.265 116.159,92.378 117.821 M167.504 121.754 C 180.942 127.695,173.065 148.152,157.311 148.231 C 142.395 148.306,140.898 125.475,155.556 121.475 C 160.282 120.185,164.159 120.276,167.504 121.754 M81.149 123.805 C 82.857 124.947,112.539 184.998,116.568 195.463 C 116.706 195.821,115.450 195.926,111.028 195.926 L 105.309 195.926 104.460 191.574 C 102.793 183.035,100.027 174.888,96.193 167.222 C 94.970 164.778,93.785 162.363,93.559 161.857 C 92.285 159.002,82.089 138.824,79.058 133.158 C 75.291 126.119,75.066 125.267,76.543 123.635 C 77.402 122.687,79.598 122.768,81.149 123.805 M279.055 126.838 C 263.923 129.586,249.411 142.201,249.459 152.565 C 249.514 164.550,262.663 167.766,283.587 160.912 C 302.924 154.578,312.358 139.356,302.603 130.231 C 298.658 126.541,288.637 125.097,279.055 126.838 M210.499 128.874 C 222.812 132.024,229.437 141.568,225.972 151.166 C 225.265 153.123,224.645 155.824,224.377 158.110 L 223.938 161.852 220.950 161.854 C 219.307 161.855,216.365 161.962,214.411 162.091 L 210.860 162.326 210.224 160.382 C 209.479 158.104,208.280 156.113,206.396 154.028 L 205.040 152.528 209.105 148.571 C 211.340 146.395,214.664 143.310,216.492 141.715 C 220.428 138.279,220.578 138.061,219.983 136.625 C 218.442 132.905,215.572 134.499,205.083 144.904 L 200.326 149.622 198.879 148.884 C 196.805 147.826,193.175 147.049,190.278 147.043 C 187.789 147.037,187.778 147.032,187.778 146.003 C 187.778 142.844,185.631 137.559,184.114 136.982 C 180.990 135.794,180.100 138.094,181.632 143.392 C 182.845 147.586,182.845 147.593,182.071 147.936 C 176.301 150.493,173.643 152.409,171.110 155.835 C 164.678 164.533,166.471 175.247,175.282 180.775 C 176.349 181.445,177.274 182.026,177.337 182.068 C 177.401 182.110,176.501 184.037,175.338 186.350 L 173.223 190.556 172.735 188.190 C 171.163 180.556,166.328 171.111,163.993 171.111 C 160.742 171.111,160.577 173.019,163.349 178.550 C 166.612 185.059,167.778 188.794,167.778 192.740 L 167.778 195.926 160.185 195.926 C 156.009 195.926,152.593 195.866,152.593 195.793 C 152.593 195.720,153.187 194.372,153.915 192.799 C 155.824 188.667,157.501 183.305,159.991 173.373 C 163.999 157.383,166.035 152.225,168.986 150.586 C 173.220 148.234,178.311 141.721,179.091 137.659 C 179.337 136.383,179.918 135.864,183.613 133.619 C 192.183 128.413,201.953 126.689,210.499 128.874 M71.144 131.828 C 72.580 132.779,73.152 133.623,75.726 138.587 C 77.753 142.495,78.425 144.086,77.888 143.704 C 77.459 143.398,75.967 142.332,74.573 141.334 C 73.178 140.337,70.568 138.754,68.773 137.816 L 65.508 136.111 65.661 134.373 C 65.985 130.672,67.992 129.740,71.144 131.828 M296.741 132.680 C 305.249 136.575,300.770 147.022,287.809 153.511 C 279.170 157.836,263.327 160.395,258.475 158.249 C 247.589 153.433,262.394 135.368,279.961 132.033 C 284.724 131.129,294.147 131.492,296.741 132.680 M50.772 137.206 C 74.644 140.805,95.132 164.777,99.455 194.167 L 99.714 195.926 90.042 195.926 C 84.280 195.926,80.370 195.786,80.370 195.579 C 80.370 195.388,81.620 189.978,83.148 183.555 C 86.319 170.225,86.214 170.996,85.017 169.798 C 83.921 168.702,82.224 168.604,81.336 169.586 C 80.843 170.131,76.315 187.567,76.299 188.981 C 76.289 189.878,75.448 188.759,73.095 184.722 C 68.954 177.618,66.689 166.402,66.673 152.920 C 66.665 145.770,64.991 143.494,61.965 146.519 L 61.002 147.483 61.231 154.760 C 61.358 158.762,61.643 163.256,61.864 164.747 C 62.417 168.464,62.278 168.557,60.196 165.867 C 56.675 161.320,52.037 156.060,47.265 151.204 C 41.964 145.809,41.209 145.424,39.428 147.205 C 37.727 148.906,38.076 149.582,43.611 155.297 C 46.412 158.189,49.697 161.722,50.910 163.148 C 54.627 167.514,54.483 167.248,52.619 166.304 C 43.589 161.729,27.326 157.030,25.725 158.533 C 23.210 160.896,24.771 162.542,31.296 164.407 C 49.916 169.730,60.669 175.734,66.152 183.868 C 67.751 186.241,67.875 186.221,62.403 184.472 C 59.814 183.644,55.339 182.397,52.459 181.700 C 39.647 178.599,37.593 178.674,37.593 182.247 C 37.593 184.205,37.733 184.269,45.295 185.725 C 59.482 188.459,72.945 193.287,72.961 195.648 C 72.962 195.801,62.894 195.926,50.587 195.926 L 28.211 195.926 25.299 193.241 C 12.390 181.338,9.544 170.723,15.730 157.547 C 22.716 142.665,35.965 134.974,50.772 137.206 M128.593 148.925 C 139.524 151.188,145.819 162.334,141.397 171.596 C 137.090 180.615,129.459 183.001,119.815 178.342 C 101.540 169.516,108.901 144.848,128.593 148.925 M193.245 152.780 C 203.345 155.161,208.205 163.740,203.574 171.010 C 197.847 180.001,182.632 181.561,175.609 173.877 C 166.869 164.314,179.266 149.484,193.245 152.780 M213.145 170.463 C 209.758 174.100,205.861 179.824,204.071 183.791 C 202.853 186.490,202.720 186.644,201.779 186.451 C 199.804 186.046,187.616 188.179,182.517 189.821 C 180.948 190.327,179.574 190.741,179.464 190.741 C 179.354 190.741,180.030 189.199,180.966 187.315 L 182.668 183.889 188.093 183.889 C 198.935 183.889,206.856 179.004,209.823 170.487 C 210.700 167.972,210.708 167.962,212.296 167.741 C 216.314 167.180,216.286 167.090,213.145 170.463 M225.967 169.732 C 226.342 170.687,227.066 172.129,227.576 172.936 L 228.502 174.404 226.751 173.848 C 222.426 172.475,220.741 172.998,220.741 175.714 C 220.741 177.867,220.834 177.913,230.898 180.722 C 233.123 181.344,235.193 181.852,235.498 181.852 C 235.803 181.852,236.316 182.087,236.638 182.374 C 236.959 182.662,238.431 183.551,239.909 184.350 L 242.596 185.804 238.243 187.146 C 230.111 189.653,223.297 191.028,215.039 191.829 C 209.984 192.319,208.585 193.403,209.660 195.999 C 210.521 198.077,218.450 197.594,231.456 194.670 L 235.173 193.835 233.899 195.343 C 228.367 201.891,222.558 211.506,218.880 220.198 C 218.021 222.228,217.183 224.036,217.018 224.215 C 215.759 225.583,207.786 215.079,205.995 209.691 C 202.036 197.785,210.096 178.309,222.778 169.137 C 225.012 167.521,225.105 167.538,225.967 169.732 M320.943 171.750 C 321.091 173.527,321.125 177.902,321.018 181.472 L 320.823 187.963 319.144 192.037 L 317.465 196.111 311.047 196.327 C 300.830 196.670,298.601 194.750,297.917 185.018 L 297.679 181.628 301.154 180.213 C 308.213 177.340,314.749 173.548,318.344 170.242 C 320.727 168.050,320.631 167.994,320.943 171.750 M118.751 183.949 C 119.540 184.287,121.429 184.916,122.950 185.347 L 125.715 186.130 127.465 190.009 C 128.428 192.143,129.383 194.347,129.589 194.907 L 129.961 195.926 126.438 195.926 L 122.915 195.926 119.976 189.787 C 118.359 186.411,117.037 183.578,117.037 183.491 C 117.037 183.243,117.223 183.293,118.751 183.949 M292.383 186.574 C 291.012 201.450,281.766 211.992,261.481 221.809 C 247.193 228.724,235.383 230.689,224.871 227.901 C 221.924 227.120,221.926 227.127,223.531 223.130 C 227.299 213.749,237.764 197.125,238.294 199.679 C 239.482 205.401,240.754 209.291,243.851 216.667 C 246.087 221.991,246.824 222.963,248.623 222.963 C 251.688 222.963,251.753 221.223,248.932 214.786 C 244.967 205.743,243.333 200.026,243.333 195.191 L 243.333 193.057 246.141 190.390 C 248.915 187.755,248.968 187.726,250.493 187.978 C 251.342 188.118,252.044 188.255,252.053 188.283 C 252.787 190.608,268.843 204.074,270.881 204.074 C 272.200 204.074,273.704 202.716,273.704 201.525 C 273.704 200.199,273.389 199.854,269.444 196.840 C 267.611 195.440,264.721 193.120,263.022 191.684 L 259.932 189.074 265.614 188.807 C 272.566 188.480,278.848 187.485,285.926 185.591 C 293.197 183.645,292.660 183.564,292.383 186.574 M139.695 189.289 C 140.851 191.819,141.969 194.353,142.180 194.921 L 142.564 195.953 139.228 195.847 L 135.893 195.741 133.873 191.111 C 131.602 185.907,131.609 185.932,132.500 185.911 C 132.856 185.902,133.981 185.584,135.000 185.204 C 137.509 184.267,137.328 184.110,139.695 189.289 M200.562 193.611 C 200.417 194.579,200.221 195.495,200.127 195.648 C 200.033 195.801,195.841 195.915,190.811 195.902 C 181.173 195.878,181.010 195.826,186.121 194.420 C 188.766 193.692,198.353 191.931,199.949 191.880 C 200.786 191.853,200.813 191.930,200.562 193.611 M135.278 201.443 L 199.630 201.481 199.630 203.100 C 199.630 215.947,209.059 228.430,221.852 232.517 C 242.878 239.234,279.147 224.602,292.127 204.167 L 293.833 201.481 329.133 201.481 L 364.433 201.481 365.642 202.562 L 366.852 203.643 366.852 235.247 L 366.852 266.852 365.957 270.000 C 361.913 284.227,351.666 293.207,337.222 295.182 C 335.108 295.472,292.422 295.556,188.148 295.479 L 42.037 295.370 39.074 294.531 C 27.210 291.168,17.887 281.976,14.753 270.556 C 13.911 267.485,13.115 219.967,13.710 208.247 C 14.098 200.597,11.703 201.139,44.444 201.286 C 59.009 201.351,99.884 201.422,135.278 201.443 M52.322 240.390 C 44.273 241.979,39.757 250.042,43.139 256.785 C 43.733 257.970,45.786 260.887,47.700 263.266 C 52.366 269.066,53.069 270.310,53.069 272.776 C 53.069 281.734,39.730 282.623,38.914 273.720 C 38.200 265.931,29.934 266.795,30.457 274.604 C 31.406 288.776,52.941 292.101,60.478 279.239 C 64.326 272.674,62.902 267.003,55.167 258.088 C 50.972 253.253,50.200 250.855,52.194 248.860 C 54.268 246.786,56.932 247.498,58.759 250.617 C 61.851 255.893,68.179 252.247,65.797 246.562 C 63.852 241.921,58.044 239.261,52.322 240.390 M176.111 240.526 C 174.598 241.203,174.267 241.840,171.664 249.074 L 169.399 255.370 167.073 255.557 C 162.264 255.944,161.116 261.852,165.850 261.852 C 166.709 261.852,167.060 262.001,166.942 262.315 C 166.847 262.569,165.723 265.778,164.445 269.444 C 161.563 277.710,159.609 280.741,157.161 280.741 C 155.635 280.741,155.739 279.705,157.902 273.355 C 161.053 264.104,160.314 261.983,152.892 258.980 L 150.379 257.963 150.375 256.401 C 150.367 253.718,148.015 251.887,145.000 252.218 C 141.674 252.584,139.704 257.148,141.364 260.646 C 142.072 262.138,142.149 261.829,139.021 270.000 C 136.717 276.019,136.482 276.482,134.810 278.296 C 132.384 280.927,129.202 281.650,128.965 279.624 C 128.905 279.111,130.364 274.302,132.206 268.936 C 134.048 263.570,135.556 258.784,135.556 258.300 C 135.556 255.460,131.272 253.961,128.602 255.865 C 127.422 256.707,127.343 256.714,125.666 256.143 C 122.865 255.188,119.339 255.365,117.027 256.574 C 113.918 258.200,113.284 259.302,109.862 269.017 C 106.200 279.413,105.030 281.067,101.614 280.677 C 99.938 280.485,100.099 279.251,102.737 272.078 C 105.588 264.325,105.886 262.823,105.020 260.557 C 103.254 255.933,95.972 253.974,90.959 256.775 L 89.208 257.754 87.693 256.752 C 85.741 255.460,81.546 255.120,79.651 256.100 C 78.559 256.665,78.393 256.668,77.808 256.138 C 75.862 254.377,72.207 255.864,71.073 258.879 C 68.292 266.270,62.593 283.412,62.593 284.383 C 62.593 287.397,67.018 288.464,69.357 286.014 C 70.047 285.290,71.338 282.089,73.864 274.835 C 77.698 263.824,78.446 262.478,80.999 261.999 C 84.114 261.415,84.044 262.190,79.962 273.465 C 75.709 285.210,75.666 287.407,79.687 287.407 C 83.016 287.407,83.623 286.509,87.244 276.218 C 91.016 265.501,91.350 264.717,92.718 263.392 C 94.198 261.957,95.927 261.536,96.791 262.400 C 97.659 263.267,97.672 263.211,94.964 270.576 C 92.150 278.232,91.852 280.470,93.278 283.240 C 95.381 287.324,101.569 288.569,106.821 285.966 C 108.752 285.009,109.139 284.927,109.630 285.370 C 112.434 287.909,117.018 287.996,120.821 285.584 C 122.328 284.628,122.600 284.562,123.006 285.051 C 125.044 287.508,131.359 288.054,135.370 286.121 C 139.990 283.895,142.473 280.226,145.969 270.464 C 147.723 265.564,147.871 265.421,149.907 266.663 C 151.474 267.618,151.450 268.132,149.590 273.498 C 147.224 280.322,147.770 283.427,151.821 286.185 C 154.408 287.947,159.179 287.639,162.201 285.516 C 163.794 284.396,163.876 284.379,164.793 284.980 C 173.059 290.391,182.877 286.321,187.459 275.585 C 188.782 272.484,188.800 271.386,187.543 270.397 C 185.202 268.556,182.856 269.726,181.004 273.658 C 178.740 278.465,176.187 280.741,173.060 280.741 C 169.258 280.741,169.215 279.479,172.685 269.547 L 175.370 261.861 177.704 261.857 C 180.562 261.851,182.101 261.122,182.803 259.441 C 183.786 257.089,182.584 255.556,179.757 255.556 C 178.669 255.556,177.778 255.482,177.778 255.392 C 177.778 255.302,178.611 252.859,179.630 249.964 C 182.067 243.034,182.037 241.615,179.427 240.524 C 177.905 239.888,177.536 239.889,176.111 240.526 M214.252 240.693 C 213.348 241.103,212.569 241.792,212.271 242.444 C 210.942 245.353,197.778 282.970,197.778 283.861 C 197.778 286.615,201.685 288.297,204.334 286.682 C 205.971 285.683,206.008 285.596,212.212 268.300 C 218.310 251.298,219.225 249.523,222.037 249.247 C 227.009 248.758,226.887 250.099,220.337 268.081 C 214.103 285.194,213.946 286.493,218.020 287.257 C 222.156 288.033,222.583 287.332,229.057 269.129 C 235.577 250.797,236.425 249.268,240.078 249.262 C 243.905 249.255,243.805 250.460,238.854 264.074 C 233.653 278.374,233.335 280.730,236.156 284.027 C 239.873 288.369,247.792 288.463,252.257 284.219 L 253.218 283.306 255.156 284.610 C 260.253 288.040,268.556 288.280,274.712 285.174 L 276.840 284.101 277.772 284.992 C 280.823 287.907,285.314 288.137,289.339 285.584 C 290.847 284.628,291.118 284.562,291.524 285.051 C 293.619 287.576,299.952 288.076,303.994 286.036 L 306.322 284.861 308.221 286.042 C 311.159 287.868,315.461 287.791,319.256 285.844 L 321.942 284.466 323.471 285.339 C 327.646 287.724,336.448 288.480,341.667 286.902 C 350.801 284.139,359.035 273.536,354.444 270.448 C 352.195 268.935,350.310 269.796,348.633 273.105 C 347.725 274.895,344.640 278.519,344.023 278.519 C 343.848 278.519,343.704 277.774,343.704 276.865 C 343.704 274.601,342.867 272.295,340.539 268.148 C 338.085 263.777,337.807 262.801,338.853 262.242 C 342.002 260.556,340.822 254.910,337.178 254.227 C 333.715 253.577,332.466 254.757,328.321 262.593 C 326.543 265.954,324.914 268.769,324.701 268.849 C 322.754 269.579,319.272 274.506,319.263 276.546 C 319.258 277.540,317.676 279.472,316.271 280.198 C 314.125 281.308,311.963 280.556,312.502 278.889 C 312.601 278.583,315.273 270.833,318.440 261.667 C 325.227 242.021,325.372 240.925,321.282 240.158 C 317.899 239.523,317.796 239.713,311.092 258.889 C 304.280 278.377,303.602 279.731,300.232 280.577 C 296.705 281.462,296.744 280.529,300.725 268.936 C 302.567 263.570,304.074 258.784,304.074 258.300 C 304.074 255.460,299.790 253.961,297.121 255.865 C 295.940 256.707,295.861 256.714,294.184 256.143 C 291.367 255.183,287.859 255.364,285.512 256.590 C 282.478 258.175,281.629 259.624,278.552 268.477 L 275.808 276.372 274.016 277.789 C 267.727 282.760,257.471 281.107,259.156 275.394 C 259.522 274.152,259.801 274.110,262.037 274.960 C 270.445 278.156,279.687 268.524,275.678 260.743 C 271.831 253.276,259.837 253.931,255.751 261.832 C 255.428 262.456,254.251 265.574,253.134 268.760 C 250.122 277.357,247.931 280.370,244.693 280.370 C 242.090 280.370,242.233 279.646,247.835 264.444 C 253.210 249.860,253.545 247.894,251.284 244.236 C 248.439 239.635,241.696 238.837,235.777 242.401 L 233.606 243.708 232.022 242.248 C 229.299 239.738,225.714 239.391,222.289 241.305 C 220.630 242.232,220.615 242.233,219.847 241.514 C 218.167 239.940,216.460 239.690,214.252 240.693 M267.393 262.214 C 270.561 263.910,267.701 268.901,263.889 268.332 C 261.829 268.024,261.774 267.877,262.790 265.377 C 264.040 262.302,265.580 261.244,267.393 262.214 M123.906 263.131 C 125.204 264.430,125.082 265.510,122.870 272.309 C 120.568 279.386,119.554 280.870,117.156 280.672 C 114.983 280.493,115.046 279.130,117.598 271.199 C 119.801 264.350,120.395 263.084,121.641 262.580 C 122.790 262.114,122.921 262.146,123.906 263.131 M292.424 263.131 C 293.723 264.430,293.601 265.510,291.389 272.309 C 289.087 279.386,288.073 280.870,285.674 280.672 C 283.501 280.493,283.565 279.130,286.116 271.199 C 288.320 264.350,288.914 263.084,290.159 262.580 C 291.308 262.114,291.439 262.146,292.424 263.131 M334.078 272.114 C 336.557 277.052,334.553 282.007,330.370 281.281 C 327.495 280.782,326.601 279.465,328.925 279.153 C 332.331 278.696,334.403 274.536,332.653 271.667 C 332.280 271.056,332.047 270.340,332.135 270.077 C 332.374 269.358,333.049 270.066,334.078 272.114 M39.358 312.977 C 31.511 314.555,29.422 324.419,36.063 328.535 L 37.126 329.194 36.015 329.769 C 31.006 332.359,30.947 341.363,35.919 344.386 L 36.938 345.006 35.500 345.914 C 31.009 348.752,31.173 357.065,35.776 359.985 L 37.370 360.995 35.779 362.116 C 30.669 365.718,31.042 374.261,36.435 377.146 L 37.963 377.963 77.222 378.063 C 120.664 378.173,119.325 378.237,124.549 375.803 C 129.769 373.369,134.032 369.428,137.422 363.900 L 139.352 360.753 226.435 360.647 C 321.014 360.531,314.702 360.671,318.704 358.609 C 326.303 354.694,326.468 337.660,318.957 332.455 C 315.793 330.262,321.715 330.397,226.682 330.358 L 139.331 330.323 137.581 327.291 C 133.850 320.828,127.187 315.609,120.106 313.605 C 117.039 312.736,43.402 312.164,39.358 312.977 M120.032 319.128 C 126.225 321.495,130.634 325.556,133.754 331.767 C 134.514 333.279,135.422 334.833,135.773 335.221 C 136.397 335.910,138.374 335.926,224.594 335.928 C 319.718 335.930,314.856 335.821,316.913 338.002 C 320.338 341.634,319.443 351.820,315.501 354.077 L 313.889 355.000 225.317 355.000 C 137.371 355.000,136.739 355.005,135.929 355.738 C 135.480 356.144,134.519 357.679,133.792 359.148 C 130.539 365.726,125.035 370.295,118.333 371.980 C 115.332 372.734,41.072 373.034,39.741 372.297 C 37.485 371.048,37.062 368.076,38.917 366.514 L 40.057 365.556 51.047 365.555 C 57.091 365.555,69.440 365.444,78.487 365.309 C 97.892 365.018,96.296 365.444,96.296 360.556 C 96.296 355.408,99.542 355.926,67.272 355.926 C 39.969 355.926,39.721 355.919,38.754 355.158 C 37.276 353.996,37.408 352.253,39.087 350.779 L 40.396 349.630 67.370 349.630 C 99.319 349.630,96.296 350.129,96.296 344.852 C 96.296 341.916,96.213 341.533,95.414 340.782 L 94.531 339.952 67.159 340.028 C 37.625 340.110,38.396 340.158,37.896 338.189 C 37.569 336.898,38.185 335.500,39.459 334.641 C 40.551 333.905,41.152 333.886,67.047 333.775 C 99.106 333.636,96.296 334.088,96.296 329.074 C 96.296 324.164,99.427 324.661,67.151 324.444 L 39.565 324.259 38.651 323.197 C 37.351 321.684,37.571 320.102,39.238 318.982 L 40.514 318.125 79.238 318.231 C 117.765 318.336,117.974 318.340,120.032 319.128 " stroke="none" fill="#674f37" fill-rule="evenodd"></path><path id="path4" d="M285.926 114.302 C 256.641 116.966,230.305 139.098,230.206 161.129 C 230.099 185.049,266.723 190.811,304.259 172.780 C 327.330 161.699,335.434 134.918,319.418 122.690 C 311.557 116.688,297.740 113.228,285.926 114.302 M295.926 126.730 C 304.585 128.403,308.976 137.059,305.110 144.834 C 300.003 155.102,286.380 162.299,267.975 164.452 C 249.884 166.568,243.022 153.039,255.523 139.903 C 266.226 128.656,280.984 123.844,295.926 126.730 " stroke="none" fill="#fbfbfb" fill-rule="evenodd"></path></g></svg>